<svg viewBox="0 0 39 16" xmlns="http://www.w3.org/2000/svg">
      <path class="heart" d="M9.22 2.2c.677-.65 1.41-1.224 2.24-1.666.904-.48 1.865-.612 2.875-.482.784.1 1.524.313 2.185.76.943.637 1.494 1.532 1.74 2.63.41 1.83-.103 3.422-1.225 4.867-.615.79-1.35 1.46-2.068 2.15-1.745 1.68-3.494 3.36-5.24 5.04-.366.35-.694.34-1.058-.01L2.38 9.43C1.333 8.426.46 7.296.15 5.85c-.36-1.66-.104-3.218 1.1-4.51C1.894.646 2.728.297 3.645.11c1.642-.334 3.086.092 4.38 1.112.398.314.786.64 1.194.975" fill="#F00"/>
      <path d="M31.666 2.036c-.026.097-.06.224-.096.35L27.873 15.18c-.017.06-.034.12-.058.18-.08.193-.216.265-.416.215a14.532 14.532 0 0 1-.55-.15c-.28-.082-.36-.224-.28-.505a87945.586 87945.586 0 0 0 3.77-13.035c.11-.388.21-.445.6-.336.14.04.29.07.44.12.15.05.26.15.27.36m5.01 6.51a80.36 80.36 0 0 0-.8-.79l-3.13-3.13c-.3-.3-.3-.42 0-.71.1-.11.21-.22.32-.33.23-.22.38-.22.61-.01l.07.07 4.51 4.51c.32.32.31.43-.01.75l-4.53 4.52c-.3.3-.42.3-.71.01a12.11 12.11 0 0 1-.34-.34c-.22-.22-.22-.36 0-.58l3.47-3.48c.16-.16.32-.32.51-.5m-11.2 3.92a1057.31 1057.31 0 0 0-3.35-3.35l-.58-.58 1.14-1.14 2.76-2.76c.05-.05.1-.1.14-.15.13-.16.13-.31-.01-.47a9.43 9.43 0 0 0-.4-.4c-.29-.29-.41-.29-.69-.01L19.91 8.2c-.275.275-.272.41.01.694l4.556 4.553c.025.025.048.05.074.074.207.2.355.2.56.01.123-.11.24-.23.357-.35.292-.29.294-.4.006-.69" fill="#000"/>
    </svg>
